<svg width="441" height="270" viewBox="0 0 441 270" fill="none" xmlns="http://www.w3.org/2000/svg">
<path d="M3.55228 230.719L101.552 131.219C114.352 122.418 124.552 127.552 128.052 131.219L188.5 189.219C202.1 201.619 215.167 194.386 220 189.219L354.552 50.2197C358.152 46.6197 356.052 44.3864 354.552 43.7197L334.552 24.2197C325.752 14.6197 334.552 6.88639 340.052 4.21973L421.552 0.219384C438.352 -1.78062 440.886 10.3861 440.052 16.7194L436.552 99.2194C432.152 110.82 420.719 109.053 415.552 106.719C409.552 101.219 397.4 88.0078 395 84.8078C392.6 81.6078 390 82.4744 389 83.3078L234 251.5C219.2 266.3 202.833 257.667 196.5 251.5L128.052 189.219C119.252 180.419 111.386 185.552 108.552 189.219L38.5522 265.719C25.5522 274.219 18.0523 268.219 6.05228 257.219C-3.54772 248.419 0.385618 235.886 3.55228 230.719Z" fill="#D3E3E9"/>
</svg>
