<svg width="345" height="315" viewBox="0 0 345 315" fill="none" xmlns="http://www.w3.org/2000/svg">
<path d="M5.39659 95.3289C8.28213 95.3289 10.6213 92.9897 10.6213 90.1041C10.6213 87.2186 8.28213 84.8794 5.39659 84.8794C2.51104 84.8794 0.171844 87.2186 0.171844 90.1041C0.171844 92.9897 2.51104 95.3289 5.39659 95.3289Z" fill="url(#paint0_linear)"/>
<path d="M5.39659 137.127C8.28213 137.127 10.6213 134.788 10.6213 131.902C10.6213 129.016 8.28213 126.677 5.39659 126.677C2.51104 126.677 0.171844 129.016 0.171844 131.902C0.171844 134.788 2.51104 137.127 5.39659 137.127Z" fill="url(#paint1_linear)"/>
<path d="M5.39659 178.925C8.28213 178.925 10.6213 176.585 10.6213 173.7C10.6213 170.814 8.28213 168.475 5.39659 168.475C2.51104 168.475 0.171844 170.814 0.171844 173.7C0.171844 176.585 2.51104 178.925 5.39659 178.925Z" fill="url(#paint2_linear)"/>
<path d="M328.851 21.8213H287.053C284.168 21.8213 281.829 19.4821 281.829 16.5966C281.829 7.93995 274.811 0.922363 266.155 0.922363H234.806C226.149 0.922363 219.132 7.93995 219.132 16.5966V53.1698H203.458C194.801 53.1698 187.783 60.1874 187.783 68.844V152.44H166.884V94.9677C166.852 94.64 166.787 94.3162 166.691 94.0011C166.787 93.4567 166.852 92.9072 166.884 92.3553C166.884 73.6926 131.879 63.6193 98.9628 63.6193C66.0469 63.6193 31.0411 73.6926 31.0411 92.3553C31.0737 92.9072 31.1382 93.4567 31.2345 94.0011C31.1385 94.3162 31.0738 94.64 31.0411 94.9677V220.361C31.0411 237.514 65.2109 246.485 98.9628 246.485C132.715 246.485 166.884 237.514 166.884 220.361V162.889H187.783V246.485C187.783 255.142 194.801 262.159 203.458 262.159H219.132V298.733C219.132 307.389 226.149 314.407 234.806 314.407H328.851C337.508 314.407 344.526 307.389 344.526 298.733V256.935C344.526 248.278 337.508 241.26 328.851 241.26H287.053C284.168 241.26 281.829 238.921 281.829 236.036C281.829 227.379 274.811 220.361 266.155 220.361H234.806C226.149 220.361 219.132 227.379 219.132 236.036V251.71H203.458C200.572 251.71 198.233 249.371 198.233 246.485V162.889H219.132V189.013C219.132 197.67 226.149 204.687 234.806 204.687H328.851C337.508 204.687 344.526 197.67 344.526 189.013V147.215C344.526 138.558 337.508 131.541 328.851 131.541H287.053C284.168 131.541 281.829 129.202 281.829 126.316C281.829 117.66 274.811 110.642 266.155 110.642H234.806C226.149 110.642 219.132 117.66 219.132 126.316V152.44H198.233V68.844C198.233 65.9585 200.572 63.6193 203.458 63.6193H219.132V79.2935C219.132 87.9501 226.149 94.9677 234.806 94.9677H328.851C337.508 94.9677 344.526 87.9501 344.526 79.2935V37.4956C344.526 28.8389 337.508 21.8213 328.851 21.8213ZM156.435 136.766C156.435 142.084 136.147 152.44 98.9628 152.44C61.7783 152.44 41.4906 142.084 41.4906 136.766V108.139C54.3174 116.614 77.0659 121.091 98.9628 121.091C120.86 121.091 143.608 116.614 156.435 108.139V136.766ZM41.4906 151.306C54.1658 158.934 76.627 162.889 98.9628 162.889C121.299 162.889 143.76 158.934 156.435 151.306V178.564C156.435 183.882 136.147 194.238 98.9628 194.238C61.7783 194.238 41.4906 183.882 41.4906 178.564V151.306ZM98.9628 74.0687C134.047 74.0687 156.435 84.8996 156.435 92.3553C156.435 99.811 134.047 110.642 98.9628 110.642C63.8786 110.642 41.4906 99.811 41.4906 92.3553C41.4906 84.8996 63.8786 74.0687 98.9628 74.0687ZM98.9628 236.036C61.7783 236.036 41.4906 225.68 41.4906 220.361V193.104C54.1658 200.732 76.627 204.687 98.9628 204.687C121.299 204.687 143.76 200.732 156.435 193.104V220.361C156.435 225.68 136.147 236.036 98.9628 236.036ZM229.581 236.036C229.581 233.15 231.921 230.811 234.806 230.811H266.155C269.04 230.811 271.379 233.15 271.379 236.036C271.379 244.692 278.397 251.71 287.053 251.71H328.851C331.737 251.71 334.076 254.049 334.076 256.935V298.733C334.076 301.618 331.737 303.957 328.851 303.957H234.806C231.921 303.957 229.581 301.618 229.581 298.733V236.036ZM229.581 126.316C229.581 123.431 231.921 121.091 234.806 121.091H266.155C269.04 121.091 271.379 123.431 271.379 126.316C271.379 134.973 278.397 141.99 287.053 141.99H328.851C331.737 141.99 334.076 144.33 334.076 147.215V189.013C334.076 191.899 331.737 194.238 328.851 194.238H234.806C231.921 194.238 229.581 191.899 229.581 189.013V126.316ZM334.076 79.2935C334.076 82.179 331.737 84.5182 328.851 84.5182H234.806C231.921 84.5182 229.581 82.179 229.581 79.2935V16.5966C229.581 13.711 231.921 11.3718 234.806 11.3718H266.155C269.04 11.3718 271.379 13.711 271.379 16.5966C271.379 25.2532 278.397 32.2708 287.053 32.2708H328.851C331.737 32.2708 334.076 34.61 334.076 37.4956V79.2935Z" fill="url(#paint3_linear)"/>
<path d="M193.487 32.6316C196.372 32.6316 198.712 30.2924 198.712 27.4069C198.712 24.5213 196.372 22.1821 193.487 22.1821C190.601 22.1821 188.262 24.5213 188.262 27.4069C188.262 30.2924 190.601 32.6316 193.487 32.6316Z" fill="url(#paint4_linear)"/>
<path d="M193.487 11.7332C196.372 11.7332 198.712 9.39398 198.712 6.50843C198.712 3.62289 196.372 1.28369 193.487 1.28369C190.601 1.28369 188.262 3.62289 188.262 6.50843C188.262 9.39398 190.601 11.7332 193.487 11.7332Z" fill="url(#paint5_linear)"/>
<path d="M193.487 142.352C196.372 142.352 198.712 140.013 198.712 137.127C198.712 134.242 196.372 131.902 193.487 131.902C190.601 131.902 188.262 134.242 188.262 137.127C188.262 140.013 190.601 142.352 193.487 142.352Z" fill="url(#paint6_linear)"/>
<path d="M193.487 121.452C196.372 121.452 198.712 119.113 198.712 116.228C198.712 113.342 196.372 111.003 193.487 111.003C190.601 111.003 188.262 113.342 188.262 116.228C188.262 119.113 190.601 121.452 193.487 121.452Z" fill="url(#paint7_linear)"/>
<path d="M193.487 252.071C196.372 252.071 198.712 249.732 198.712 246.846C198.712 243.961 196.372 241.622 193.487 241.622C190.601 241.622 188.262 243.961 188.262 246.846C188.262 249.732 190.601 252.071 193.487 252.071Z" fill="url(#paint8_linear)"/>
<path d="M193.487 231.172C196.372 231.172 198.712 228.833 198.712 225.947C198.712 223.062 196.372 220.723 193.487 220.723C190.601 220.723 188.262 223.062 188.262 225.947C188.262 228.833 190.601 231.172 193.487 231.172Z" fill="url(#paint9_linear)"/>
<defs>
<linearGradient id="paint0_linear" x1="5.39659" y1="84.8794" x2="5.39659" y2="95.3289" gradientUnits="userSpaceOnUse">
<stop stop-color="#8FCEE7"/>
<stop offset="1" stop-color="#B6E0EF"/>
</linearGradient>
<linearGradient id="paint1_linear" x1="5.39659" y1="126.677" x2="5.39659" y2="137.127" gradientUnits="userSpaceOnUse">
<stop stop-color="#8FCEE7"/>
<stop offset="1" stop-color="#B6E0EF"/>
</linearGradient>
<linearGradient id="paint2_linear" x1="5.39659" y1="168.475" x2="5.39659" y2="178.925" gradientUnits="userSpaceOnUse">
<stop stop-color="#8FCEE7"/>
<stop offset="1" stop-color="#B6E0EF"/>
</linearGradient>
<linearGradient id="paint3_linear" x1="187.783" y1="0.922363" x2="187.783" y2="314.407" gradientUnits="userSpaceOnUse">
<stop stop-color="#8FCEE7"/>
<stop offset="1" stop-color="#B6E0EF"/>
</linearGradient>
<linearGradient id="paint4_linear" x1="193.487" y1="22.1821" x2="193.487" y2="32.6316" gradientUnits="userSpaceOnUse">
<stop stop-color="#8FCEE7"/>
<stop offset="1" stop-color="#B6E0EF"/>
</linearGradient>
<linearGradient id="paint5_linear" x1="193.487" y1="1.28369" x2="193.487" y2="11.7332" gradientUnits="userSpaceOnUse">
<stop stop-color="#8FCEE7"/>
<stop offset="1" stop-color="#B6E0EF"/>
</linearGradient>
<linearGradient id="paint6_linear" x1="193.487" y1="131.902" x2="193.487" y2="142.352" gradientUnits="userSpaceOnUse">
<stop stop-color="#8FCEE7"/>
<stop offset="1" stop-color="#B6E0EF"/>
</linearGradient>
<linearGradient id="paint7_linear" x1="193.487" y1="111.003" x2="193.487" y2="121.452" gradientUnits="userSpaceOnUse">
<stop stop-color="#8FCEE7"/>
<stop offset="1" stop-color="#B6E0EF"/>
</linearGradient>
<linearGradient id="paint8_linear" x1="193.487" y1="241.622" x2="193.487" y2="252.071" gradientUnits="userSpaceOnUse">
<stop stop-color="#8FCEE7"/>
<stop offset="1" stop-color="#B6E0EF"/>
</linearGradient>
<linearGradient id="paint9_linear" x1="193.487" y1="220.723" x2="193.487" y2="231.172" gradientUnits="userSpaceOnUse">
<stop stop-color="#8FCEE7"/>
<stop offset="1" stop-color="#B6E0EF"/>
</linearGradient>
</defs>
</svg>
