<svg width="79" height="85" viewBox="0 0 79 85" fill="none" xmlns="http://www.w3.org/2000/svg">
<path d="M79 46.0417C79 67.5578 59.0749 85 37.7444 85C16.4139 85 -3.05176e-05 67.5578 -3.05176e-05 46.0417C-3.05176e-05 24.5256 29.5806 0 50.9111 0C72.2415 0 79 24.5256 79 46.0417Z" fill="url(#paint0_linear)"/>
<g clip-path="url(#clip0)">
<path d="M32.5634 57.6465C30.3359 57.6465 28.2787 56.5923 26.9755 54.8926H38.1514C36.848 56.5923 34.7909 57.6465 32.5634 57.6465Z" fill="black"/>
<path d="M17.0003 50.8535C17.0003 59.2053 23.9396 66 32.4691 66C40.9986 66 47.9378 59.2053 47.9378 50.8535C47.9378 42.4654 40.9192 35.707 32.4691 35.707C23.9396 35.707 17.0003 42.5017 17.0003 50.8535ZM40.9066 49.4766C40.1293 49.4766 39.5003 48.8607 39.5003 48.0996C39.5003 47.3399 38.87 46.7227 38.0941 46.7227C37.3182 46.7227 36.6878 47.3399 36.6878 48.0996C36.6878 48.8607 36.0589 49.4766 35.2816 49.4766C34.5043 49.4766 33.8753 48.8607 33.8753 48.0996C33.8753 45.8218 35.7678 43.9688 38.0941 43.9688C40.4204 43.9688 42.3128 45.8218 42.3128 48.0996C42.3128 48.8607 41.6839 49.4766 40.9066 49.4766ZM23.3985 52.814C23.6622 52.4483 24.0907 52.2305 24.548 52.2305H40.3902C40.8475 52.2305 41.276 52.4483 41.5397 52.814C41.8034 53.1785 41.8679 53.6477 41.7155 54.0686C40.3188 57.9104 36.604 60.4922 32.4691 60.4922C28.3342 60.4922 24.6194 57.9104 23.2227 54.0686C23.0703 53.6477 23.1349 53.1785 23.3985 52.814ZM22.6253 48.0996C22.6253 45.8218 24.5178 43.9688 26.8441 43.9688C29.1704 43.9688 31.0628 45.8218 31.0628 48.0996C31.0628 48.8607 30.4339 49.4766 29.6566 49.4766C28.8793 49.4766 28.2503 48.8607 28.2503 48.0996C28.2503 47.3399 27.62 46.7227 26.8441 46.7227C26.0682 46.7227 25.4378 47.3399 25.4378 48.0996C25.4378 48.8607 24.8089 49.4766 24.0316 49.4766C23.2543 49.4766 22.6253 48.8607 22.6253 48.0996Z" fill="black"/>
<path d="M34.1303 32.8504C35.0652 32.9214 35.9707 33.034 36.7905 33.2348C39.6387 33.8828 42.2148 35.2236 44.3882 37.0162C45.9262 36.0778 47.6907 35.5234 49.5319 35.5234C52.3155 35.5234 54.9784 36.6947 56.8378 38.7385C57.3542 39.306 57.302 40.176 56.7225 40.683C56.143 41.1872 55.2558 41.1375 54.7367 40.5701C52.6929 38.3241 49.1967 37.8293 46.4837 39.0472C48.3715 41.1913 49.7791 43.742 50.4479 46.5606C50.6625 47.4039 50.7807 48.3049 50.8544 49.2275C58.7661 48.567 65.0007 42.0613 65.0007 34.1465C65.0007 25.7947 58.0614 19 49.5319 19C41.4492 19 34.8054 25.1043 34.1303 32.8504ZM50.9382 30.0156C50.9382 29.2545 51.5671 28.6387 52.3444 28.6387C53.1217 28.6387 53.7507 29.2545 53.7507 30.0156C53.7507 30.7753 54.381 31.3926 55.1569 31.3926C55.9328 31.3926 56.5632 30.7753 56.5632 30.0156C56.5632 29.2545 57.1921 28.6387 57.9694 28.6387C58.7467 28.6387 59.3757 29.2545 59.3757 30.0156C59.3757 32.2935 57.4832 34.1465 55.1569 34.1465C52.8306 34.1465 50.9382 32.2935 50.9382 30.0156ZM39.6882 30.0156C39.6882 29.2545 40.3171 28.6387 41.0944 28.6387C41.8717 28.6387 42.5007 29.2545 42.5007 30.0156C42.5007 30.7753 43.131 31.3926 43.9069 31.3926C44.6828 31.3926 45.3132 30.7753 45.3132 30.0156C45.3132 29.2545 45.9421 28.6387 46.7194 28.6387C47.4967 28.6387 48.1257 29.2545 48.1257 30.0156C48.1257 32.2935 46.2332 34.1465 43.9069 34.1465C41.5806 34.1465 39.6882 32.2935 39.6882 30.0156Z" fill="black"/>
</g>
<defs>
<linearGradient id="paint0_linear" x1="39.5" y1="0" x2="39.5" y2="85" gradientUnits="userSpaceOnUse">
<stop stop-color="#8FCEE7"/>
<stop offset="1" stop-color="#B6E0EF"/>
</linearGradient>
<clipPath id="clip0">
<rect width="48" height="47" fill="white" transform="translate(17 19)"/>
</clipPath>
</defs>
</svg>
