<svg width="20" height="19" viewBox="0 0 20 19" fill="none" xmlns="http://www.w3.org/2000/svg">
<g clip-path="url(#clip0)">
<path d="M10 1.65556C12.6719 1.65556 12.9883 1.66633 14.0391 1.70943C15.0156 1.74893 15.543 1.89976 15.8945 2.02545C16.3594 2.19065 16.6953 2.39176 17.043 2.71138C17.3945 3.03459 17.6094 3.33984 17.7891 3.7672C17.9258 4.09041 18.0898 4.57882 18.1328 5.47303C18.1797 6.44267 18.1914 6.73356 18.1914 9.18637C18.1914 11.6428 18.1797 11.9337 18.1328 12.8997C18.0898 13.7975 17.9258 14.2823 17.7891 14.6055C17.6094 15.0329 17.3906 15.3417 17.043 15.6614C16.6914 15.9846 16.3594 16.1821 15.8945 16.3473C15.543 16.473 15.0117 16.6238 14.0391 16.6633C12.9844 16.7064 12.668 16.7172 10 16.7172C7.32813 16.7172 7.01172 16.7064 5.96094 16.6633C4.98438 16.6238 4.45703 16.473 4.10547 16.3473C3.64063 16.1821 3.30469 15.981 2.95703 15.6614C2.60547 15.3381 2.39063 15.0329 2.21094 14.6055C2.07422 14.2823 1.91016 13.7939 1.86719 12.8997C1.82031 11.9301 1.80859 11.6392 1.80859 9.18637C1.80859 6.72996 1.82031 6.43907 1.86719 5.47303C1.91016 4.57523 2.07422 4.09041 2.21094 3.7672C2.39063 3.33984 2.60938 3.031 2.95703 2.71138C3.30859 2.38817 3.64063 2.19065 4.10547 2.02545C4.45703 1.89976 4.98828 1.74893 5.96094 1.70943C7.01172 1.66633 7.32813 1.65556 10 1.65556ZM10 0C7.28516 0 6.94531 0.0107737 5.87891 0.0538684C4.81641 0.0969632 4.08594 0.254977 3.45313 0.481225C2.79297 0.718246 2.23438 1.03068 1.67969 1.54423C1.12109 2.05418 0.78125 2.56773 0.523438 3.17106C0.277344 3.75643 0.105469 4.42439 0.0585938 5.40121C0.0117188 6.38521 0 6.69764 0 9.19355C0 11.6895 0.0117188 12.0019 0.0585938 12.9823C0.105469 13.9591 0.277344 14.6307 0.523438 15.2125C0.78125 15.8194 1.12109 16.3329 1.67969 16.8429C2.23438 17.3528 2.79297 17.6688 3.44922 17.9023C4.08594 18.1285 4.8125 18.2865 5.875 18.3296C6.94141 18.3727 7.28125 18.3835 9.99609 18.3835C12.7109 18.3835 13.0508 18.3727 14.1172 18.3296C15.1797 18.2865 15.9102 18.1285 16.543 17.9023C17.1992 17.6688 17.7578 17.3528 18.3125 16.8429C18.8672 16.3329 19.2109 15.8194 19.4648 15.216C19.7109 14.6307 19.8828 13.9627 19.9297 12.9859C19.9766 12.0055 19.9883 11.693 19.9883 9.19714C19.9883 6.70124 19.9766 6.3888 19.9297 5.40839C19.8828 4.43158 19.7109 3.76002 19.4648 3.17824C19.2188 2.56773 18.8789 2.05418 18.3203 1.54423C17.7656 1.03427 17.207 0.718246 16.5508 0.484816C15.9141 0.258569 15.1875 0.100554 14.125 0.0574597C13.0547 0.0107737 12.7148 0 10 0Z" fill="white"/>
<path d="M10 4.4707C7.16406 4.4707 4.86328 6.58594 4.86328 9.19317C4.86328 11.8004 7.16406 13.9156 10 13.9156C12.8359 13.9156 15.1367 11.8004 15.1367 9.19317C15.1367 6.58594 12.8359 4.4707 10 4.4707ZM10 12.2565C8.16016 12.2565 6.66797 10.8846 6.66797 9.19317C6.66797 7.5017 8.16016 6.12985 10 6.12985C11.8398 6.12985 13.332 7.5017 13.332 9.19317C13.332 10.8846 11.8398 12.2565 10 12.2565Z" fill="white"/>
<path d="M16.5391 4.28415C16.5391 4.89466 16 5.38666 15.3398 5.38666C14.6758 5.38666 14.1406 4.89107 14.1406 4.28415C14.1406 3.67364 14.6797 3.18164 15.3398 3.18164C16 3.18164 16.5391 3.67723 16.5391 4.28415Z" fill="white"/>
</g>
<defs>
<clipPath id="clip0">
<rect width="20" height="18.3871" fill="white"/>
</clipPath>
</defs>
</svg>
