<svg width="20" height="19" viewBox="0 0 20 19" fill="none" xmlns="http://www.w3.org/2000/svg">
<path fill-rule="evenodd" clip-rule="evenodd" d="M10 18.3871C4.47715 18.3871 0 14.271 0 9.19355C0 4.11609 4.47715 0 10 0C15.5228 0 20 4.11609 20 9.19355C20 14.271 15.5228 18.3871 10 18.3871ZM10.1393 8.67719C10.9581 8.67719 14.9393 6.61898 14.9393 6.61898L14.9457 6.25123C14.9457 5.84525 14.5873 5.51575 14.1445 5.51575H6.13405C5.69165 5.51575 5.33325 5.84525 5.33325 6.25123V6.57889C5.33325 6.57889 9.35805 8.67719 10.1393 8.67719ZM5.33965 7.72256C5.33925 7.72256 9.35805 9.68884 10.1393 9.68884C10.9957 9.68884 14.9393 7.72256 14.9393 7.72256L14.9457 12.1355C14.9457 12.5415 14.5873 12.8709 14.1445 12.8709H6.13405C5.69205 12.8709 5.33325 12.5415 5.33325 12.1355L5.33965 7.72256Z" fill="white"/>
</svg>
