<svg width="298" height="306" viewBox="0 0 298 306" fill="none" xmlns="http://www.w3.org/2000/svg">
<path d="M256.417 119.125H297.145L225.422 11.5347L180.923 78.2777L168.712 80.7809C157.143 73.1989 144.425 67.8771 130.844 64.9239L125.951 46.7189H86.9914L82.0988 64.9291C68.8588 67.8098 56.4515 72.9403 45.1251 80.212L28.8233 70.8199L1.2779 98.3653L10.67 114.667C3.39838 125.993 -1.73213 138.406 -4.61286 151.641L-22.8282 156.533V195.493L-4.61803 200.386C-1.7373 213.626 3.3932 226.033 10.6649 237.359L1.27273 253.661L28.8181 281.207L45.1199 271.814C56.4463 279.086 68.8588 284.217 82.0936 287.097L86.9862 305.313L101.116 305.308C101.307 305.318 101.85 305.333 102.709 305.333C112.504 305.333 163.359 303.337 204.372 263.715C238.026 231.205 255.517 182.579 256.417 119.125ZM101.297 294.969H94.9199L90.41 278.197L87.2189 277.597C73.1049 274.933 59.989 269.518 48.2282 261.476L45.5388 259.645L30.5249 268.298L14.1921 251.965L22.8446 236.951L21.0138 234.261C12.9715 222.501 7.55139 209.38 4.89305 195.271L4.29311 192.08L-12.4845 187.565V164.462L4.28794 159.952L4.88787 156.761C7.55139 142.647 12.9663 129.531 21.0086 117.77L22.8395 115.081L14.1869 100.067L30.5197 83.734L45.5336 92.3866L48.223 90.5557C59.9839 82.5135 73.1049 77.0934 87.2138 74.435L90.4048 73.8351L94.9199 57.0627H118.023L122.533 73.8351L125.724 74.435C139.838 77.0985 152.953 82.5135 164.714 90.5557L166.53 91.7867L172.772 90.5092L164.461 102.984C148.5 89.6713 129.018 82.9221 106.469 82.9221C55.1378 82.9221 13.3749 124.685 13.3749 176.016C13.3749 227.264 55.0033 268.975 106.215 269.11C109.618 269.399 136.698 271.013 161.88 248.484C190.315 223.028 204.734 177.769 204.734 113.953V108.781H173.02L225.422 30.1844L277.823 108.781H246.109V113.953C246.109 176.957 229.683 224.802 197.297 256.164C155.917 296.241 102 295 101.297 294.969ZM137.5 170.844V252.368C133.88 254.065 130.404 255.321 127.156 256.257V207.047H85.7812V256.04C82.2436 255.125 78.7784 254.028 75.4374 252.673V181.188H34.0624V215.989C27.489 204.13 23.7187 190.513 23.7187 176.016C23.7187 130.39 60.8424 93.2658 106.469 93.2658C127.218 93.2658 144.342 99.2859 158.684 111.647L153.698 119.125H194.359C193.904 154.79 188.707 183.97 178.875 206.463V170.844H137.5ZM168.531 181.188V225.242C164.533 231.029 160.091 236.165 155.177 240.592C152.747 242.785 150.29 244.662 147.844 246.364V181.188H168.531ZM116.812 217.391V258.404C110.916 259.143 107.131 258.802 107.038 258.797L106.469 258.766C102.957 258.766 99.5228 258.476 96.1249 258.047V217.391H116.812ZM65.0937 191.531V247.569C57.2997 243.043 50.328 237.292 44.4062 230.564V191.531H65.0937Z" fill="url(#paint0_linear)"/>
<path d="M158.187 129.469C149.633 129.469 142.672 136.43 142.672 144.984C142.672 146.417 142.93 147.782 143.298 149.101L115.457 168.589C112.913 166.768 109.825 165.672 106.469 165.672C102.295 165.672 98.5195 167.348 95.7267 170.037L70.0742 157.211C70.1517 156.585 70.2655 155.969 70.2655 155.328C70.2655 146.774 63.3042 139.812 54.7499 139.812C46.1956 139.812 39.2343 146.774 39.2343 155.328C39.2343 163.882 46.1956 170.844 54.7499 170.844C58.9236 170.844 62.6991 169.168 65.4919 166.479L91.1444 179.305C91.0668 179.931 90.953 180.546 90.953 181.188C90.953 189.742 97.9144 196.703 106.469 196.703C115.023 196.703 121.984 189.742 121.984 181.188C121.984 179.755 121.726 178.395 121.364 177.076L149.209 157.588C151.743 159.404 154.831 160.5 158.187 160.5C166.742 160.5 173.703 153.539 173.703 144.984C173.703 136.43 166.742 129.469 158.187 129.469ZM54.7499 160.5C51.895 160.5 49.578 158.183 49.578 155.328C49.578 152.473 51.895 150.156 54.7499 150.156C57.6048 150.156 59.9218 152.473 59.9218 155.328C59.9218 158.183 57.6048 160.5 54.7499 160.5ZM106.469 186.359C103.614 186.359 101.297 184.042 101.297 181.188C101.297 178.333 103.614 176.016 106.469 176.016C109.324 176.016 111.641 178.333 111.641 181.188C111.641 184.042 109.324 186.359 106.469 186.359ZM158.187 150.156C155.333 150.156 153.016 147.839 153.016 144.984C153.016 142.13 155.333 139.812 158.187 139.812C161.042 139.812 163.359 142.13 163.359 144.984C163.359 147.839 161.042 150.156 158.187 150.156Z" fill="url(#paint1_linear)"/>
<path d="M34.0624 0.171875H23.7187V10.5156H34.0624V0.171875Z" fill="url(#paint2_linear)"/>
<path d="M34.0624 20.8594H23.7187V31.2031H34.0624V20.8594Z" fill="url(#paint3_linear)"/>
<path d="M44.4062 10.5156H34.0624V20.8594H44.4062V10.5156Z" fill="url(#paint4_linear)"/>
<defs>
<linearGradient id="paint0_linear" x1="137.159" y1="11.5347" x2="137.159" y2="305.333" gradientUnits="userSpaceOnUse">
<stop stop-color="#8FCEE7"/>
<stop offset="1" stop-color="#B6E0EF"/>
</linearGradient>
<linearGradient id="paint1_linear" x1="106.469" y1="129.469" x2="106.469" y2="196.703" gradientUnits="userSpaceOnUse">
<stop stop-color="#8FCEE7"/>
<stop offset="1" stop-color="#B6E0EF"/>
</linearGradient>
<linearGradient id="paint2_linear" x1="28.8905" y1="0.171875" x2="28.8905" y2="10.5156" gradientUnits="userSpaceOnUse">
<stop stop-color="#8FCEE7"/>
<stop offset="1" stop-color="#B6E0EF"/>
</linearGradient>
<linearGradient id="paint3_linear" x1="28.8905" y1="20.8594" x2="28.8905" y2="31.2031" gradientUnits="userSpaceOnUse">
<stop stop-color="#8FCEE7"/>
<stop offset="1" stop-color="#B6E0EF"/>
</linearGradient>
<linearGradient id="paint4_linear" x1="39.2343" y1="10.5156" x2="39.2343" y2="20.8594" gradientUnits="userSpaceOnUse">
<stop stop-color="#8FCEE7"/>
<stop offset="1" stop-color="#B6E0EF"/>
</linearGradient>
</defs>
</svg>
