<svg width="20" height="19" viewBox="0 0 20 19" fill="none" xmlns="http://www.w3.org/2000/svg">
<g clip-path="url(#clip0)">
<path fill-rule="evenodd" clip-rule="evenodd" d="M20 9.19355C20 14.271 15.5228 18.3871 10 18.3871C4.47715 18.3871 0 14.271 0 9.19355C0 4.11609 4.47715 0 10 0C15.5228 0 20 4.11609 20 9.19355ZM10.3584 6.78711C9.38571 7.15905 7.44178 7.92885 4.52658 9.09653C4.05319 9.2696 3.80521 9.43891 3.78264 9.60446C3.74449 9.88424 4.12559 9.99442 4.64456 10.1444C4.71515 10.1648 4.78829 10.186 4.86328 10.2084C5.37386 10.361 6.06069 10.5395 6.41774 10.5466C6.74162 10.553 7.10311 10.4303 7.5022 10.1783C10.226 8.48798 11.632 7.6336 11.7203 7.61518C11.7825 7.60218 11.8688 7.58584 11.9273 7.63362C11.9858 7.6814 11.98 7.77189 11.9738 7.79616C11.9361 7.94413 10.4401 9.22277 9.66593 9.88447C9.42458 10.0907 9.25339 10.2371 9.2184 10.2705C9.14 10.3453 9.0601 10.4161 8.98332 10.4842C8.50897 10.9046 8.15326 11.2199 9.00301 11.7347C9.41137 11.9821 9.73813 12.1867 10.0641 12.3907C10.4201 12.6136 10.7752 12.836 11.2347 13.1128C11.3517 13.1834 11.4635 13.2567 11.5724 13.328C11.9867 13.5996 12.359 13.8435 12.8188 13.8046C13.086 13.782 13.3621 13.551 13.5022 12.8621C13.8335 11.2339 14.4847 7.70611 14.6352 6.25239C14.6484 6.12503 14.6318 5.96203 14.6185 5.89047C14.6051 5.81892 14.5773 5.71697 14.4761 5.6415C14.3563 5.55212 14.1714 5.53327 14.0886 5.53461C13.7125 5.5407 13.1355 5.72517 10.3584 6.78711Z" fill="white"/>
</g>
<defs>
<clipPath id="clip0">
<rect width="20" height="18.3871" fill="white"/>
</clipPath>
</defs>
</svg>
