<svg width="79" height="84" viewBox="0 0 79 84" fill="none" xmlns="http://www.w3.org/2000/svg">
<path d="M79 45.5C79 66.763 59.0749 84 37.7444 84C16.414 84 -1.52588e-05 66.763 -1.52588e-05 45.5C-1.52588e-05 24.237 29.5806 0 50.9111 0C72.2416 0 79 24.237 79 45.5Z" fill="url(#paint0_linear)"/>
<g clip-path="url(#clip0)">
<path d="M35.9062 59.4746C36.4438 59.4746 36.9679 59.3796 37.4999 59.3359C37.4622 58.8681 37.4297 58.399 37.4297 57.9219C37.4297 48.504 44.9473 40.8418 54.1875 40.8418C54.6556 40.8418 55.1158 40.875 55.5748 40.9134C55.6177 40.3711 55.7109 39.837 55.7109 39.2891C55.7109 28.1591 46.8262 19 35.9062 19C24.9863 19 16 28.1591 16 39.2891C16 50.419 24.9863 59.4746 35.9062 59.4746ZM34.3828 25.3145H37.4297V37.7363H49.6172V40.8418H34.3828V25.3145Z" fill="black"/>
<path d="M54.1877 43.9473C46.6272 43.9473 40.4768 50.216 40.4768 57.9219C40.4768 65.6277 46.6272 72 54.1877 72C61.7481 72 68.0002 65.6277 68.0002 57.9219C68.0002 50.216 61.7481 43.9473 54.1877 43.9473ZM52.6643 64.7757L47.0168 59.0197L49.1711 56.824L52.6643 60.3844L59.2043 53.7186L61.3586 55.9142L52.6643 64.7757Z" fill="black"/>
</g>
<defs>
<linearGradient id="paint0_linear" x1="39.5" y1="0" x2="39.5" y2="84" gradientUnits="userSpaceOnUse">
<stop stop-color="#8FCEE7"/>
<stop offset="1" stop-color="#B6E0EF"/>
</linearGradient>
<clipPath id="clip0">
<rect width="52" height="53" fill="white" transform="translate(16 19)"/>
</clipPath>
</defs>
</svg>
