<svg width="20" height="19" viewBox="0 0 20 19" fill="none" xmlns="http://www.w3.org/2000/svg">
<path fill-rule="evenodd" clip-rule="evenodd" d="M10 0C4.47715 0 0 4.11609 0 9.19355C0 14.271 4.47715 18.3871 10 18.3871C15.5228 18.3871 20 14.271 20 9.19355C20 4.11609 15.5228 0 10 0ZM10.8142 12.0957C10.7156 12.1913 10.5231 12.2106 10.5231 12.2106H9.88558C9.88558 12.2106 8.47905 12.2868 7.24 11.123C5.88878 9.85323 4.69563 7.33394 4.69563 7.33394C4.69563 7.33394 4.62677 7.16869 4.70137 7.08912C4.78537 6.9992 5.0144 6.99355 5.0144 6.99355L6.5383 6.9846C6.5383 6.9846 6.68177 7.00579 6.78455 7.07406C6.86959 7.13055 6.91706 7.23554 6.91706 7.23554C6.91706 7.23554 7.16331 7.79769 7.48938 8.30616C8.12638 9.29909 8.42271 9.51613 8.6387 9.40973C8.95381 9.25484 8.85938 8.00626 8.85938 8.00626C8.85938 8.00626 8.86512 7.55334 8.70078 7.35136C8.57348 7.19505 8.3335 7.14939 8.22759 7.13667C8.14151 7.12632 8.28237 6.94647 8.46497 6.86596C8.73938 6.74496 9.22353 6.7379 9.79584 6.74308C10.2419 6.74732 10.3702 6.77227 10.5445 6.81041C10.9489 6.89847 10.9363 7.18071 10.909 7.78985C10.9009 7.97202 10.8914 8.18343 10.8914 8.42763C10.8914 8.4825 10.8897 8.541 10.8878 8.60117C10.8784 8.91324 10.8675 9.2706 11.0954 9.40361C11.2123 9.47141 11.4976 9.4135 12.2119 8.31934C12.5505 7.80051 12.804 7.19082 12.804 7.19082C12.804 7.19082 12.8598 7.08206 12.9459 7.03545C13.0341 6.9879 13.153 7.00249 13.153 7.00249L14.7568 6.99355C14.7568 6.99355 15.2388 6.94129 15.3165 7.13809C15.3985 7.34383 15.1366 7.82499 14.4813 8.61313C13.8624 9.35771 13.5599 9.63388 13.5847 9.87661C13.603 10.0558 13.7997 10.2168 14.1792 10.5345C14.9669 11.1944 15.178 11.5417 15.2287 11.6251C15.2329 11.632 15.2361 11.6371 15.2383 11.6404C15.5915 12.1691 14.8465 12.2106 14.8465 12.2106L13.4217 12.2285C13.4217 12.2285 13.116 12.2831 12.7132 12.0335C12.5022 11.9029 12.2961 11.6896 12.0997 11.4865C11.7998 11.1762 11.5228 10.8896 11.2864 10.9573C10.8893 11.0712 10.9013 11.8429 10.9013 11.8429C10.9013 11.8429 10.9045 12.0081 10.8142 12.0957Z" fill="white"/>
</svg>
