<svg width="79" height="84" viewBox="0 0 79 84" fill="none" xmlns="http://www.w3.org/2000/svg">
<path d="M79 45.5C79 66.763 59.0749 84 37.7444 84C16.414 84 -2.28882e-05 66.763 -2.28882e-05 45.5C-2.28882e-05 24.237 29.5806 0 50.9111 0C72.2416 0 79 24.237 79 45.5Z" fill="url(#paint0_linear)"/>
<g clip-path="url(#clip0)">
<path d="M67.3861 55.1288C66.9542 54.087 65.7271 53.5795 64.6452 53.9954C63.5633 54.4113 63.0363 55.5928 63.4682 56.6347C64.0173 57.9594 63.8372 59.4718 62.9865 60.6808C62.1354 61.8904 60.7726 62.5842 59.2478 62.5842H22.7614C21.098 62.5842 19.621 61.7485 18.81 60.3483C17.9978 58.9458 18.036 57.2931 18.9121 55.927L37.1553 27.484C37.9859 26.1889 39.4249 25.4157 41.0046 25.4157C42.5843 25.4157 44.0231 26.1889 44.8539 27.484L58.3462 48.5201C58.9583 49.4745 60.2581 49.7706 61.249 49.1808C62.24 48.5914 62.5474 47.3399 61.9351 46.3855L48.4427 25.3494C46.8379 22.8473 44.0573 21.3535 41.0045 21.3535C37.9517 21.3535 35.1711 22.8474 33.5663 25.3494L15.3231 53.7924C13.6318 56.4296 13.5582 59.6201 15.126 62.3271C16.6925 65.0317 19.5468 66.6463 22.7614 66.6463H59.2478C62.1943 66.6463 64.8299 65.3023 66.4787 62.9593C68.1152 60.6337 68.4542 57.7064 67.3861 55.1288Z" fill="black"/>
<path d="M41.0056 58.6236C42.1705 58.6236 43.1148 57.7143 43.1148 56.5926C43.1148 55.4708 42.1705 54.5615 41.0056 54.5615H41.0045C39.8396 54.5615 38.8959 55.4708 38.8959 56.5926C38.8959 57.7143 39.8407 58.6236 41.0056 58.6236Z" fill="black"/>
<path d="M43.1136 49.4839V34.5555C43.1136 33.4337 42.1694 32.5244 41.0044 32.5244C39.8395 32.5244 38.8953 33.4337 38.8953 34.5555V49.4839C38.8953 50.6056 39.8395 51.5149 41.0044 51.5149C42.1694 51.5149 43.1136 50.6056 43.1136 49.4839Z" fill="black"/>
</g>
<defs>
<linearGradient id="paint0_linear" x1="39.5" y1="0" x2="39.5" y2="84" gradientUnits="userSpaceOnUse">
<stop stop-color="#8FCEE7"/>
<stop offset="1" stop-color="#B6E0EF"/>
</linearGradient>
<clipPath id="clip0">
<rect width="54" height="52" fill="white" transform="translate(14 18)"/>
</clipPath>
</defs>
</svg>
